<?xml version="1.0" standalone="no"?>
<!DOCTYPE svg PUBLIC "-//W3C//DTD SVG 20010904//EN"
 "http://www.w3.org/TR/2001/REC-SVG-20010904/DTD/svg10.dtd">
<svg version="1.0" xmlns="http://www.w3.org/2000/svg"
 width="862.000000pt" height="1280.000000pt" viewBox="0 0 862.000000 1280.000000"
 preserveAspectRatio="xMidYMid meet">
<g transform="translate(0.000000,1280.000000) scale(0.100000,-0.100000)"
fill="#81E6D9" stroke="none">
<path d="M4376 12778 c-11 -19 -16 -170 -25 -858 -6 -459 -16 -1145 -21 -1525
-25 -1765 -30 -2136 -40 -2940 -6 -473 -13 -870 -16 -883 -7 -33 -70 -56 -193
-71 -115 -14 -114 -14 -126 47 -4 24 0 46 14 75 11 22 18 44 15 49 -10 16 -43
8 -70 -17 -15 -14 -39 -28 -53 -32 -45 -10 -51 -21 -51 -98 0 -82 1 -84 112
-202 44 -46 58 -69 58 -91 0 -32 -20 -56 -44 -50 -8 2 -57 44 -109 95 -74 71
-96 100 -101 127 -4 20 -18 47 -31 61 -15 15 -25 36 -25 54 0 20 -8 35 -26 48
-18 13 -27 31 -31 61 -4 29 -13 46 -29 57 -18 12 -24 25 -24 53 0 31 -6 43
-30 60 -23 17 -30 31 -30 56 0 21 -9 42 -24 59 -13 14 -26 41 -30 60 -3 19
-31 83 -61 142 -30 59 -55 118 -55 130 0 22 -65 115 -81 115 -5 0 -27 28 -49
62 -30 47 -40 72 -40 103 0 28 -8 52 -25 74 -17 25 -26 53 -31 103 -5 50 -13
77 -29 96 -17 21 -24 45 -29 116 -6 68 -12 95 -29 118 -18 25 -23 48 -27 136
-5 84 -10 114 -27 142 -12 21 -23 61 -27 100 -4 48 -11 69 -26 81 -25 21 -40
60 -40 105 0 19 -11 56 -24 82 -36 73 -43 279 -33 997 2 137 -9 171 -29 87 -6
-26 -21 -64 -34 -86 l-23 -38 6 -449 c7 -431 8 -450 28 -489 16 -30 23 -66 27
-131 4 -82 3 -93 -17 -120 -22 -29 -22 -31 -5 -50 10 -12 21 -45 25 -80 5 -41
14 -68 29 -84 14 -15 24 -43 29 -79 4 -31 17 -69 28 -84 11 -15 22 -49 25 -76
3 -26 16 -61 27 -77 12 -17 26 -55 31 -86 6 -33 18 -65 31 -79 15 -16 22 -40
26 -86 4 -44 13 -75 30 -102 18 -28 27 -59 31 -102 3 -44 10 -68 23 -80 26
-24 24 -56 -6 -84 -14 -13 -25 -31 -25 -39 0 -38 72 -151 143 -225 49 -50 78
-90 83 -110 3 -17 16 -42 28 -56 13 -14 38 -52 56 -85 18 -33 46 -75 61 -93
16 -18 29 -41 29 -50 0 -10 17 -41 39 -69 21 -29 49 -71 61 -95 12 -24 32 -58
46 -77 13 -19 24 -44 24 -56 0 -13 11 -30 25 -39 34 -22 33 -60 -1 -83 -25
-16 -26 -20 -21 -80 4 -35 3 -63 -2 -63 -20 0 -124 41 -149 58 -15 11 -44 24
-64 30 -21 6 -50 19 -65 30 -16 11 -47 25 -70 31 -23 6 -45 16 -49 22 -3 6
-25 20 -48 31 -73 35 -129 67 -150 86 -12 11 -34 22 -50 26 -16 4 -49 25 -73
46 -24 21 -62 47 -85 59 -22 11 -80 56 -129 100 l-87 81 -60 0 c-57 0 -61 2
-127 58 -38 31 -89 82 -113 112 -24 30 -69 85 -100 122 -32 37 -64 85 -72 107
-8 22 -28 51 -43 65 -15 14 -27 30 -27 35 0 16 -64 113 -89 135 -11 11 -21 31
-21 45 0 15 -17 50 -41 81 -23 30 -52 75 -64 101 -13 25 -30 51 -39 58 -8 7
-18 28 -22 47 -6 30 -36 65 -120 135 -45 38 -101 117 -108 150 -3 20 -17 45
-31 57 -17 15 -25 32 -25 55 0 25 -7 39 -30 55 -24 18 -30 30 -30 59 0 26 -8
45 -26 64 -19 20 -27 41 -31 85 -4 47 -11 63 -31 80 -19 15 -26 33 -30 75 -3
35 -13 65 -28 85 -16 21 -24 44 -24 71 0 27 -9 53 -27 79 -21 30 -28 56 -33
114 -4 52 -13 86 -28 110 -17 27 -22 50 -22 100 0 54 -6 78 -35 138 -19 40
-39 72 -45 72 -21 0 -7 -146 27 -275 9 -33 18 -107 20 -165 4 -89 9 -111 29
-142 14 -22 28 -63 32 -97 5 -35 17 -69 30 -86 16 -20 22 -42 22 -75 0 -34 7
-58 26 -86 15 -21 29 -60 33 -89 4 -27 15 -62 24 -76 9 -14 24 -48 32 -76 8
-27 24 -58 35 -68 11 -10 20 -31 20 -48 0 -17 11 -43 28 -62 62 -76 82 -119
82 -183 0 -55 3 -65 30 -92 20 -20 30 -41 30 -60 0 -24 24 -54 137 -171 93
-95 150 -163 174 -207 21 -36 44 -69 52 -74 8 -4 32 -38 52 -76 21 -37 50 -80
65 -97 15 -16 31 -40 34 -52 4 -12 27 -55 51 -95 24 -40 53 -100 66 -132 17
-48 41 -80 123 -165 107 -113 116 -119 158 -120 14 -1 39 -12 55 -25 22 -18
45 -25 106 -31 61 -5 84 -12 106 -31 23 -19 40 -24 83 -24 45 0 59 -4 78 -25
13 -14 39 -28 59 -31 20 -4 47 -17 61 -29 14 -13 41 -26 62 -30 20 -4 46 -18
59 -31 12 -13 33 -24 45 -24 14 0 53 -25 95 -60 39 -33 78 -60 86 -60 20 0 79
-45 138 -104 65 -66 113 -101 150 -110 16 -4 36 -12 42 -18 17 -13 17 -54 1
-65 -7 -4 -67 -8 -133 -8 -118 0 -121 -1 -147 -27 -15 -16 -36 -28 -46 -28
-23 0 -52 -30 -52 -53 0 -25 -36 -57 -64 -57 -13 0 -40 -13 -61 -30 -21 -16
-48 -30 -61 -30 -13 0 -34 -11 -46 -25 -12 -14 -37 -28 -57 -31 -20 -4 -51
-20 -69 -35 -18 -16 -37 -29 -43 -29 -5 0 -22 -8 -37 -18 -15 -10 -47 -32 -72
-49 -25 -16 -60 -35 -79 -41 -19 -7 -40 -21 -47 -31 -8 -10 -25 -21 -38 -25
-29 -7 -84 -40 -129 -77 -18 -14 -48 -34 -69 -43 -20 -10 -56 -35 -79 -57 -24
-22 -58 -51 -75 -64 -18 -14 -42 -40 -54 -60 -12 -19 -27 -35 -34 -35 -7 0
-33 -14 -58 -30 l-46 -31 -330 3 c-330 3 -330 3 -362 27 -21 15 -53 26 -89 30
-31 4 -72 16 -91 28 -19 11 -49 24 -66 27 -17 4 -46 18 -65 32 -19 14 -47 24
-66 24 -22 0 -42 9 -63 30 -19 19 -41 30 -58 30 -18 0 -39 11 -57 30 -16 17
-33 30 -38 30 -4 0 -23 11 -41 25 -18 14 -39 25 -47 25 -8 0 -34 21 -59 46
-25 25 -63 55 -85 66 -55 28 -117 84 -354 318 -212 209 -243 236 -261 225 -19
-12 -10 -37 25 -76 19 -22 35 -50 35 -63 0 -14 10 -30 24 -39 13 -9 27 -28 30
-44 8 -33 48 -91 106 -153 23 -25 54 -63 67 -85 33 -52 205 -228 263 -267 25
-17 69 -52 99 -77 30 -25 66 -53 81 -61 15 -8 45 -25 66 -36 22 -12 47 -31 58
-43 10 -11 34 -23 53 -27 23 -4 48 -22 76 -51 23 -25 65 -60 92 -78 l50 -33
275 -8 c202 -5 283 -11 309 -21 19 -8 48 -12 65 -9 17 3 56 -1 86 -9 40 -11
112 -15 270 -15 184 0 219 2 239 17 22 15 26 15 58 -3 l35 -18 32 35 c17 20
53 60 79 90 27 30 60 76 74 103 31 62 125 155 226 226 43 30 102 77 130 104
50 47 162 126 178 126 4 0 34 25 65 55 l58 55 109 0 c102 0 111 2 139 25 35
30 64 32 78 6 12 -23 -1 -64 -29 -96 -10 -11 -35 -51 -55 -89 -22 -40 -67 -99
-107 -140 -38 -39 -82 -93 -98 -121 -16 -27 -58 -84 -94 -125 -36 -41 -68 -86
-70 -100 -3 -14 -28 -53 -55 -87 -28 -34 -53 -76 -57 -92 -4 -17 -17 -39 -29
-48 -14 -11 -25 -34 -29 -58 -4 -26 -16 -47 -32 -60 -17 -14 -25 -31 -25 -52
0 -19 -10 -43 -25 -62 -17 -20 -28 -47 -32 -81 -4 -32 -15 -62 -28 -79 -17
-19 -24 -45 -29 -104 -4 -43 -16 -106 -27 -140 -17 -49 -22 -100 -27 -247 -7
-172 -9 -188 -31 -223 -20 -33 -24 -53 -25 -126 -1 -78 -4 -92 -28 -127 -22
-31 -28 -52 -28 -91 0 -37 -6 -60 -25 -87 -16 -23 -27 -57 -31 -94 -4 -35 -15
-71 -30 -92 -13 -20 -27 -58 -30 -85 -4 -30 -17 -61 -31 -78 -12 -16 -23 -36
-23 -46 0 -10 -13 -37 -29 -62 -16 -24 -32 -62 -36 -83 -6 -38 -33 -83 -82
-137 l-24 -26 3 -479 3 -479 24 -45 c22 -40 25 -60 29 -180 4 -121 6 -137 26
-158 17 -20 22 -40 27 -125 5 -80 11 -110 28 -139 13 -21 25 -62 28 -95 4 -32
17 -80 30 -108 12 -27 23 -63 23 -80 0 -16 14 -59 30 -93 17 -35 30 -78 30
-95 0 -18 10 -48 22 -67 12 -19 27 -43 33 -54 5 -10 15 -18 20 -18 20 2 16 41
-8 79 -17 26 -27 59 -31 108 -4 40 -17 91 -30 120 -18 37 -26 77 -31 150 -5
73 -13 115 -31 153 -19 44 -25 78 -30 180 -5 101 -11 135 -28 167 -19 37 -22
62 -27 295 -4 140 -12 303 -19 362 -10 91 -10 117 4 183 9 42 16 106 16 142 0
56 3 67 27 91 26 25 28 35 33 127 4 78 10 108 25 130 13 20 22 55 26 103 4 55
12 81 30 105 18 24 25 50 30 105 4 53 12 81 29 104 16 22 24 49 28 97 3 44 13
80 28 106 16 27 25 61 27 103 3 46 10 71 28 95 18 24 25 50 30 102 4 54 12 80
32 110 22 32 27 51 27 97 0 46 5 62 26 87 19 23 26 43 28 88 3 75 49 162 116
221 43 38 50 49 56 92 4 28 17 64 30 82 20 27 24 44 24 105 0 67 2 75 30 103
26 26 30 38 30 83 0 38 7 63 25 92 13 22 25 56 25 75 0 62 45 101 78 68 8 -8
12 -50 12 -122 0 -98 3 -114 24 -151 18 -30 27 -64 32 -121 5 -62 12 -85 30
-107 13 -16 24 -41 24 -56 0 -15 9 -36 20 -46 11 -10 25 -37 31 -59 8 -31 35
-65 113 -146 56 -58 113 -120 125 -138 13 -18 40 -44 60 -58 20 -13 54 -38 76
-55 22 -16 60 -39 84 -50 25 -11 51 -29 58 -39 8 -11 25 -20 37 -20 13 0 40
-13 61 -30 21 -16 43 -30 50 -30 7 0 28 -11 48 -24 20 -14 53 -28 74 -32 41
-7 73 -29 73 -50 0 -28 23 -24 51 9 16 19 41 38 56 42 16 3 37 15 48 25 11 9
37 23 58 30 21 7 41 18 44 26 4 11 93 68 131 84 24 10 209 185 282 266 42 47
100 134 100 150 0 6 9 19 20 29 28 26 90 152 90 184 0 16 11 49 25 75 16 31
25 63 25 94 0 55 18 95 45 100 27 6 45 -25 45 -78 0 -31 9 -63 25 -94 18 -35
27 -70 32 -133 5 -72 11 -95 36 -134 24 -39 36 -49 72 -58 48 -12 50 -16 61
-106 4 -40 13 -68 27 -83 15 -16 23 -42 28 -90 4 -49 13 -77 32 -106 22 -31
27 -50 27 -99 0 -52 4 -64 30 -94 27 -30 30 -41 30 -100 0 -54 4 -72 24 -97
18 -24 24 -47 27 -101 4 -54 10 -77 28 -102 18 -24 26 -50 30 -105 5 -54 12
-82 30 -107 19 -26 24 -48 27 -104 2 -55 7 -77 26 -101 18 -24 24 -49 28 -112
5 -62 11 -88 29 -113 13 -18 26 -54 29 -79 3 -29 14 -58 28 -75 28 -33 26 4
24 -541 -1 -349 -2 -361 -23 -400 -19 -35 -23 -62 -27 -188 -5 -136 -7 -149
-30 -180 -22 -30 -25 -45 -30 -153 -4 -101 -9 -126 -28 -156 -15 -25 -25 -62
-31 -120 -5 -52 -16 -100 -30 -126 -13 -27 -21 -61 -21 -93 0 -64 18 -63 34 1
7 25 22 61 34 81 12 19 22 48 22 64 0 16 11 47 25 69 13 22 25 53 25 68 0 35
22 88 43 106 12 9 17 29 17 65 0 34 8 66 24 96 17 32 25 70 30 134 5 66 14
102 32 135 22 41 24 58 24 166 0 111 2 126 30 190 l29 70 1 250 c0 240 -1 254
-26 343 l-26 92 26 34 c29 39 34 87 11 126 -8 14 -24 45 -36 70 -12 25 -44 84
-70 131 -31 56 -49 99 -49 120 0 24 -7 39 -26 54 -19 15 -27 33 -33 78 -5 35
-16 66 -28 80 -11 12 -23 42 -26 66 -4 30 -14 52 -31 68 -23 21 -26 32 -26 92
0 57 -5 78 -30 124 -26 49 -30 67 -30 135 0 66 -4 83 -24 110 -19 26 -25 50
-30 127 -4 55 -16 120 -28 153 -17 46 -22 91 -27 233 -6 173 -6 176 -33 208
-17 20 -28 44 -28 62 0 17 -11 49 -24 72 -14 23 -28 61 -32 84 -4 24 -16 51
-30 64 -16 15 -24 34 -24 54 0 22 -10 42 -30 63 -18 19 -30 43 -30 58 0 15
-13 41 -30 61 -16 18 -30 38 -30 43 0 17 -68 114 -106 150 -20 19 -43 50 -51
69 -8 19 -25 49 -38 65 -13 18 -25 51 -27 77 -3 25 -15 59 -26 75 -12 16 -25
48 -30 71 -6 27 -27 62 -56 96 -25 30 -46 59 -46 65 0 16 117 92 143 92 13 0
34 -11 47 -24 12 -14 34 -28 49 -31 15 -3 49 -27 76 -53 28 -26 83 -69 123
-96 132 -87 504 -457 539 -536 l23 -50 86 0 c70 0 94 -4 125 -22 l39 -22 39
22 c37 21 49 22 329 22 244 0 296 3 328 16 30 13 60 15 130 12 61 -3 102 -1
121 7 16 7 71 16 122 20 l93 7 81 79 c56 54 91 81 114 85 17 3 46 17 64 30 18
13 40 24 49 24 9 0 45 23 79 50 35 28 77 57 95 64 44 18 196 173 243 248 21
33 61 86 89 117 28 31 67 85 87 121 20 36 56 85 81 109 26 25 48 58 52 75 8
38 21 55 51 67 27 10 31 39 5 39 -9 0 -82 -65 -162 -145 -80 -80 -167 -161
-195 -179 -27 -19 -86 -67 -130 -108 -73 -67 -170 -138 -189 -138 -5 0 -28
-18 -53 -40 -25 -22 -69 -51 -98 -65 -29 -13 -55 -31 -58 -39 -3 -8 -23 -20
-44 -26 -21 -7 -51 -23 -66 -36 -17 -15 -42 -24 -61 -24 -22 0 -40 -8 -56 -25
-13 -14 -39 -28 -59 -31 -20 -4 -47 -17 -61 -29 -14 -12 -43 -25 -64 -28 -21
-4 -50 -16 -63 -28 -21 -21 -38 -24 -201 -33 -211 -11 -305 -12 -516 -1 l-160
8 -29 31 c-16 17 -38 50 -48 73 -20 42 -68 87 -126 117 -18 9 -43 27 -57 41
-14 14 -31 25 -38 25 -14 0 -78 42 -126 82 -18 15 -37 28 -42 28 -17 0 -128
79 -134 95 -3 8 -13 15 -22 15 -19 0 -126 65 -150 91 -9 10 -27 19 -40 19 -13
0 -39 14 -57 30 -20 17 -46 30 -61 30 -15 0 -39 12 -58 30 -20 19 -41 30 -60
30 -22 0 -42 13 -83 55 -41 42 -60 55 -83 55 -16 0 -64 11 -106 25 -42 14 -91
25 -109 25 -36 0 -77 24 -77 45 0 23 30 45 62 45 25 0 47 16 117 84 47 46 101
92 120 102 18 11 46 26 62 34 15 8 37 25 49 38 11 12 29 22 39 22 10 0 35 14
56 30 21 17 42 30 47 30 6 0 23 9 39 20 15 12 43 26 61 32 18 6 49 22 68 35
19 12 49 23 66 23 20 0 45 11 69 30 31 25 47 30 91 30 45 0 57 4 78 27 22 24
35 28 95 31 57 3 73 8 92 28 12 13 34 24 47 24 39 0 199 170 215 227 6 25 21
50 34 58 17 11 23 25 23 50 0 27 7 39 30 57 17 12 30 31 30 42 0 28 30 75 73
117 20 19 39 48 43 64 3 17 29 56 56 88 27 31 54 73 59 91 6 21 41 68 93 122
147 155 201 220 235 283 29 55 31 66 22 93 -10 28 -8 35 13 57 13 14 29 44 35
67 6 22 20 49 31 59 11 10 20 30 20 45 0 15 13 44 30 65 16 21 30 46 30 56 0
9 11 31 25 47 15 18 25 42 25 62 0 23 9 40 30 60 20 19 30 38 30 57 0 15 12
45 26 66 19 28 27 56 31 108 5 54 12 78 30 99 20 25 23 38 23 119 0 83 3 95
28 133 27 41 27 43 27 205 0 180 -14 219 -30 86 -6 -48 -17 -89 -26 -100 -9
-10 -20 -46 -23 -82 -5 -40 -17 -81 -32 -106 -18 -32 -24 -56 -24 -102 0 -50
-5 -67 -30 -104 -21 -31 -30 -56 -30 -85 0 -31 -8 -51 -30 -79 -17 -22 -30
-50 -30 -66 0 -16 -9 -37 -21 -48 -11 -10 -25 -37 -30 -59 -5 -23 -20 -58 -34
-78 -14 -20 -25 -43 -25 -50 0 -7 -26 -63 -57 -126 -49 -96 -70 -125 -138
-193 -51 -51 -95 -106 -119 -150 -21 -38 -47 -79 -56 -90 -10 -11 -21 -33 -24
-49 -4 -17 -21 -45 -37 -63 -18 -21 -29 -45 -29 -63 0 -20 -8 -35 -24 -46 -14
-8 -28 -29 -31 -45 -4 -17 -30 -58 -58 -92 -28 -34 -59 -75 -68 -92 -51 -96
-32 -73 -255 -302 l-90 -93 -56 0 c-50 0 -61 -4 -100 -36 -23 -20 -54 -47 -67
-60 -13 -13 -29 -24 -35 -24 -17 0 -94 -55 -153 -107 -29 -26 -65 -54 -80 -62
-52 -29 -95 -56 -122 -77 -14 -12 -42 -26 -62 -33 -20 -6 -44 -20 -54 -31 -9
-10 -34 -21 -55 -25 -21 -4 -47 -17 -59 -31 -11 -13 -32 -24 -45 -24 -13 0
-40 -13 -61 -30 -21 -16 -49 -30 -62 -30 -13 0 -41 -13 -61 -30 -43 -34 -96
-49 -107 -29 -5 7 -9 61 -11 121 -2 103 -1 109 21 126 13 10 28 37 34 59 6 22
20 48 31 58 11 10 23 33 26 52 4 19 16 46 28 61 12 15 37 54 55 87 19 33 47
75 62 93 16 18 29 42 29 53 0 11 23 44 51 74 27 29 54 69 60 87 5 21 39 67 83
114 83 90 99 132 89 240 -5 56 -3 65 21 96 21 28 26 46 26 93 0 50 4 62 30 92
25 28 30 42 30 86 0 38 7 63 25 92 13 22 25 56 25 75 1 41 22 104 43 128 8 9
17 43 20 75 4 41 13 68 31 92 20 26 26 45 26 84 0 39 6 56 26 80 26 31 26 32
27 219 2 185 2 188 30 234 l27 47 0 360 c0 344 -1 364 -22 423 -12 35 -24 101
-27 147 -4 54 -10 86 -18 89 -15 4 -14 33 -16 -598 l-2 -425 -27 -52 c-22 -42
-28 -66 -28 -118 0 -58 -3 -69 -26 -92 -15 -15 -31 -41 -36 -59 -5 -19 -20
-47 -33 -63 -23 -27 -25 -37 -25 -139 0 -98 -2 -112 -22 -138 -18 -23 -24 -46
-29 -114 -4 -70 -10 -92 -32 -124 -22 -31 -27 -50 -27 -96 0 -43 -6 -65 -23
-92 -15 -21 -26 -56 -30 -92 -4 -39 -14 -71 -31 -95 -14 -20 -26 -50 -26 -65
0 -20 -16 -45 -58 -89 -65 -68 -106 -136 -116 -191 -4 -19 -17 -48 -30 -63
-13 -15 -26 -44 -30 -63 -3 -19 -15 -42 -26 -50 -13 -10 -22 -30 -24 -54 -2
-28 -10 -45 -29 -60 -19 -15 -27 -31 -27 -53 0 -19 -11 -45 -30 -68 -16 -21
-30 -48 -30 -61 0 -12 -11 -35 -24 -51 -13 -15 -27 -44 -31 -63 -4 -19 -32
-82 -62 -140 -44 -85 -68 -118 -129 -177 -56 -55 -82 -73 -102 -73 -47 0 -70
43 -37 70 8 7 20 30 25 52 7 22 32 62 61 94 45 50 49 58 49 106 0 51 -1 53
-62 110 -88 81 -126 91 -94 24 20 -43 20 -65 0 -94 -14 -20 -23 -22 -109 -22
-135 0 -127 -16 -120 259 3 124 10 577 15 1006 6 429 15 1093 20 1475 5 382
14 1035 20 1450 6 415 15 1047 20 1405 8 569 7 652 -6 672 -18 29 -40 29 -58
1z"/>
</g>
</svg>
